<?xml version="1.0" encoding="iso-8859-1"?>
<!-- Generator: Adobe Illustrator 19.0.0, SVG Export Plug-In . SVG Version: 6.00 Build 0)  -->
<svg version="1.1" id="Capa_1" xmlns="http://www.w3.org/2000/svg" xmlns:xlink="http://www.w3.org/1999/xlink" x="0px" y="0px"
	 viewBox="0 0 464 464" style="enable-background:new 0 0 464 464;" xml:space="preserve">
<path style="fill:#D1E3EE;" d="M0,8h224v304H0V8z"/>
<path style="fill:#D3B585;" d="M272,360H32V200h144l16-16h64l16,16V360z"/>
<path style="fill:#9FC8DD;" d="M96,56h224v304H96V56z"/>
<g>
	<path style="fill:#1D5C88;" d="M120,192h72v16h-72V192z"/>
	<path style="fill:#1D5C88;" d="M120,144h72v16h-72V144z"/>
	<path style="fill:#1D5C88;" d="M120,96h72v16h-72V96z"/>
	<path style="fill:#1D5C88;" d="M24,144h72v16H24V144z"/>
	<path style="fill:#1D5C88;" d="M24,96h72v16H24V96z"/>
	<path style="fill:#1D5C88;" d="M24,48h72v16H24V48z"/>
</g>
<path style="fill:#D3B585;" d="M368,408H128V248h144l16-16h64l16,16V408z"/>
<path style="fill:#D1E3EE;" d="M192,104h224v304H192V104z"/>
<g>
	<path style="fill:#1D5C88;" d="M216,240h176v16H216V240z"/>
	<path style="fill:#1D5C88;" d="M216,192h176v16H216V192z"/>
	<path style="fill:#1D5C88;" d="M216,144h176v16H216V144z"/>
</g>
<path style="fill:#D3B585;" d="M464,456H224V296h144l16-16h64l16,16V456z"/>
<g>
</g>
<g>
</g>
<g>
</g>
<g>
</g>
<g>
</g>
<g>
</g>
<g>
</g>
<g>
</g>
<g>
</g>
<g>
</g>
<g>
</g>
<g>
</g>
<g>
</g>
<g>
</g>
<g>
</g>
</svg>
